<svg xmlns="http://www.w3.org/2000/svg" viewBox="0 0 1300 850" data-width="4096"><rect width="1300.0" height="850.0" fill="#8cc6ec"/><g transform="translate(162.0 326.0)"><g transform="translate(-76.0 -196.0) rotate(-22.00)"><rect x="-24.0" y="-5.5" width="36.0" height="11.0" rx="5.5" fill="#fdfefe"/></g><g transform="translate(-76.0 -150.0) rotate(-22.00)"><rect x="-24.0" y="-5.5" width="36.0" height="11.0" rx="5.5" fill="#fdfefe"/></g><g transform="translate(-76.0 -104.0) rotate(-22.00)"><rect x="-24.0" y="-5.5" width="36.0" height="11.0" rx="5.5" fill="#fdfefe"/></g><g transform="translate(-76.0 -58.0) rotate(-22.00)"><rect x="-24.0" y="-5.5" width="36.0" height="11.0" rx="5.5" fill="#fdfefe"/></g><circle cx="0.0" cy="-286.0" r="17.0" fill="none" stroke="#fdfefe" stroke-width="9.0"/><rect x="-70.0" y="-275.0" width="140.0" height="550.0" rx="70.0" fill="#fdfefe"/><path d="M 75 -214 L 97 -246 Q 101 -250 101 -244 L 101 170 Q 101 196 83 200 L 75 200 Z" fill="#fdfefe"/><path d="M 90 -176 L 90 -140" fill="none" stroke="#8cc6ec" stroke-width="5.0" stroke-linecap="round" stroke-linejoin="round"/></g><g transform="translate(462.0 206.0)"><path d="M -13 -62 C -28 -86 -56 -116 -56 -142 C -56 -168 -30 -178 0 -178 C 30 -178 56 -168 56 -142 C 56 -116 28 -86 13 -62" fill="none" stroke="#fdfefe" stroke-width="11.0" stroke-linecap="round" stroke-linejoin="round"/><rect x="-134.0" y="-62.0" width="268.0" height="124.0" rx="8.0" fill="#fdfefe"/><path d="M -13 -62 L -60 52" fill="none" stroke="#8cc6ec" stroke-width="4.5" stroke-linecap="round" stroke-linejoin="round"/><path d="M 13 -62 L 60 52" fill="none" stroke="#8cc6ec" stroke-width="4.5" stroke-linecap="round" stroke-linejoin="round"/><rect x="-134.0" y="72.0" width="268.0" height="14.0" rx="6.0" fill="#fdfefe"/></g><g transform="translate(462.0 378.0)"><path d="M -137 -60 L 125 -60 Q 133 -60 133 -52 L 133 52 Q 133 60 125 60 L -137 60 A 60 60 0 0 1 -137 -60 Z" fill="#fdfefe"/><rect x="128.0" y="-38.0" width="70.0" height="76.0" rx="4.0" fill="#fdfefe"/><path d="M 131 -44 L 131 44" fill="none" stroke="#8cc6ec" stroke-width="4.5" stroke-linecap="round" stroke-linejoin="round"/><rect x="154.0" y="-24.0" width="18.0" height="15.0" rx="2.0" fill="#8cc6ec"/><rect x="154.0" y="9.0" width="18.0" height="15.0" rx="2.0" fill="#8cc6ec"/></g><g transform="translate(540.0 566.0)"><g transform="translate(0.0 0.0) rotate(-30.00)"><circle cx="0.0" cy="0.0" r="84.0" fill="#fdfefe"/><path d="M -214 -84 L 0 -84 L 0 -26 L -214 -26 Q -222 -26 -222 -34 L -222 -76 Q -222 -84 -214 -84 Z" fill="#fdfefe"/><rect x="-78.0" y="-88.0" width="36.0" height="22.0" rx="3.0" fill="#8cc6ec"/></g><circle cx="64.0" cy="-76.0" r="16.0" fill="none" stroke="#fdfefe" stroke-width="8.0"/></g><g transform="translate(72.0 706.0)"><g transform="translate(50.0 -36.0) rotate(-31.70)"><path d="M 0 -8 L 368 -10 Q 384 -10 384 0 Q 384 10 368 10 L 0 8 Z" fill="#fdfefe"/></g><path d="M 20 -31 C 4 -31 -2 -18 -2 0 C -2 18 4 31 20 31 Z" fill="#fdfefe"/><path d="M 16 -32 L 440 -24 Q 468 -22 478 -10 L 478 10 Q 468 22 440 24 L 16 32 Z" fill="#fdfefe"/><path d="M 66 -6 L 262 -4" fill="none" stroke="#8cc6ec" stroke-width="4.5" stroke-linecap="round" stroke-linejoin="round"/><path d="M 66 6 L 262 4" fill="none" stroke="#8cc6ec" stroke-width="4.5" stroke-linecap="round" stroke-linejoin="round"/><rect x="36.0" y="-50.0" width="26.0" height="98.0" rx="6.0" fill="#fdfefe"/><circle cx="480.0" cy="0.0" r="28.0" fill="#fdfefe"/><circle cx="488.0" cy="0.0" r="12.0" fill="#8cc6ec"/><circle cx="530.0" cy="0.0" r="40.0" fill="none" stroke="#8cc6ec" stroke-width="17.0"/><circle cx="530.0" cy="0.0" r="40.0" fill="none" stroke="#fdfefe" stroke-width="8.0"/></g><g transform="translate(800.0 458.0)"><circle cx="0.0" cy="-184.0" r="29.0" fill="none" stroke="#fdfefe" stroke-width="11.0"/><rect x="-22.0" y="-154.0" width="44.0" height="20.0" rx="7.0" fill="#fdfefe"/><rect x="-13.0" y="-140.0" width="26.0" height="26.0" rx="3.0" fill="#fdfefe"/><circle cx="0.0" cy="0.0" r="120.0" fill="#fdfefe"/><circle cx="0.0" cy="0.0" r="100.0" fill="none" stroke="#8cc6ec" stroke-width="4.5"/><circle cx="0.0" cy="0.0" r="91.0" fill="none" stroke="#8cc6ec" stroke-width="2.6"/><path d="M 0 0 L -48 -28" fill="none" stroke="#8cc6ec" stroke-width="4.5" stroke-linecap="round" stroke-linejoin="round"/><path d="M 0 0 L 64 -37" fill="none" stroke="#8cc6ec" stroke-width="4.5" stroke-linecap="round" stroke-linejoin="round"/><circle cx="0.0" cy="0.0" r="7.0" fill="#8cc6ec"/></g><g transform="translate(1074.0 306.0)"><path d="M -114 -82 Q -134 -82 -134 -62 L -134 62 Q -134 82 -114 82 C -60 68 60 68 114 82 Q 134 82 134 62 L 134 -62 Q 134 -82 114 -82 C 60 -68 -60 -68 -114 -82 Z" fill="#fdfefe"/><path d="M -116 -22 L 116 -22 L 116 52 L -116 52 Z" fill="none" stroke="#8cc6ec" stroke-width="4.5" stroke-linecap="round" stroke-linejoin="round"/><path d="M -116 -22 L 116 -22" fill="none" stroke="#8cc6ec" stroke-width="8.0" stroke-linecap="round" stroke-linejoin="round"/><circle cx="0.0" cy="14.0" r="8.0" fill="#8cc6ec"/></g><g transform="translate(1056.0 530.0)"><path d="M -136 0 C -88 -10 -46 -18 -24 -26 C -13 -42 -8 -78 -5 -106 Q 0 -114 5 -106 C 8 -78 13 -42 24 -26 C 46 -18 88 -10 136 0 C 88 10 46 20 24 28 C 16 42 10 58 4 74 Q 0 81 -4 74 C -10 58 -16 42 -24 28 C -46 20 -88 10 -136 0 Z" fill="#fdfefe"/></g><g transform="translate(1208.0 440.0)"><rect x="-17.0" y="0.0" width="34.0" height="10.0" rx="3.0" fill="#fdfefe"/><path d="M -5.5 8 L 5.5 8 L 5.5 234 L 0 266 L -5.5 234 Z" fill="#fdfefe"/></g><g transform="translate(790.0 688.0)"><circle cx="-62.0" cy="0.0" r="48.0" fill="#fdfefe"/><circle cx="8.0" cy="0.0" r="76.0" fill="#fdfefe"/><path d="M 50 -62 C 82 -34 102 -23 132 -22 L 132 22 C 102 23 82 34 50 62 Z" fill="#fdfefe"/><rect x="120.0" y="-22.0" width="252.0" height="44.0" rx="4.0" fill="#fdfefe"/><path d="M 226 18 L 226 62 L 250 62 L 250 92 L 280 92 L 280 70 L 302 70 L 302 92 L 334 92 L 334 60 L 350 60 L 350 84 L 372 84 L 372 18 Z" fill="#fdfefe"/><circle cx="-66.0" cy="0.0" r="18.0" fill="#8cc6ec"/><path d="M 150 -22 L 150 22" fill="none" stroke="#8cc6ec" stroke-width="4.5" stroke-linecap="round" stroke-linejoin="round"/></g><text x="630.0" y="84.0" text-anchor="start" font-family="Comfortaa" font-weight="700" font-size="26.5" letter-spacing="0" fill="#fdfefe">This is not just a biscuit tin but something</text><text x="630.0" y="119.5" text-anchor="start" font-family="Comfortaa" font-weight="700" font-size="26.5" letter-spacing="0" fill="#fdfefe">you can keep lots of small things in. Enjoy</text><text x="630.0" y="155.0" text-anchor="start" font-family="Comfortaa" font-weight="700" font-size="26.5" letter-spacing="0" fill="#fdfefe">IndiGo’s 2nd reusable tin for the 2nd time</text><text x="630.0" y="190.5" text-anchor="start" font-family="Comfortaa" font-weight="700" font-size="26.5" letter-spacing="0" fill="#fdfefe">in aviation history.</text></svg>