<svg xmlns="http://www.w3.org/2000/svg" viewBox="0 0 1250 2000" data-width="4096"><rect width="1250" height="2000" fill="#ffffff"/><rect x="77.0" y="612.0" width="1096.0" height="1151.0" fill="none" stroke="#8f2b25" stroke-width="24.0"/><path d="M 72.2,612.0 L 77.0,607.2 L 81.8,612.0 L 77.0,616.8 Z" fill="#ffffff"/><path d="M 88.1,612.0 L 92.9,607.2 L 97.7,612.0 L 92.9,616.8 Z" fill="#ffffff"/><path d="M 104.0,612.0 L 108.8,607.2 L 113.6,612.0 L 108.8,616.8 Z" fill="#ffffff"/><path d="M 119.9,612.0 L 124.7,607.2 L 129.5,612.0 L 124.7,616.8 Z" fill="#ffffff"/><path d="M 135.7,612.0 L 140.5,607.2 L 145.3,612.0 L 140.5,616.8 Z" fill="#ffffff"/><path d="M 151.6,612.0 L 156.4,607.2 L 161.2,612.0 L 156.4,616.8 Z" fill="#ffffff"/><path d="M 167.5,612.0 L 172.3,607.2 L 177.1,612.0 L 172.3,616.8 Z" fill="#ffffff"/><path d="M 183.4,612.0 L 188.2,607.2 L 193.0,612.0 L 188.2,616.8 Z" fill="#ffffff"/><path d="M 199.3,612.0 L 204.1,607.2 L 208.9,612.0 L 204.1,616.8 Z" fill="#ffffff"/><path d="M 215.2,612.0 L 220.0,607.2 L 224.8,612.0 L 220.0,616.8 Z" fill="#ffffff"/><path d="M 231.0,612.0 L 235.8,607.2 L 240.6,612.0 L 235.8,616.8 Z" fill="#ffffff"/><path d="M 246.9,612.0 L 251.7,607.2 L 256.5,612.0 L 251.7,616.8 Z" fill="#ffffff"/><path d="M 262.8,612.0 L 267.6,607.2 L 272.4,612.0 L 267.6,616.8 Z" fill="#ffffff"/><path d="M 278.7,612.0 L 283.5,607.2 L 288.3,612.0 L 283.5,616.8 Z" fill="#ffffff"/><path d="M 294.6,612.0 L 299.4,607.2 L 304.2,612.0 L 299.4,616.8 Z" fill="#ffffff"/><path d="M 310.5,612.0 L 315.3,607.2 L 320.1,612.0 L 315.3,616.8 Z" fill="#ffffff"/><path d="M 326.3,612.0 L 331.1,607.2 L 335.9,612.0 L 331.1,616.8 Z" fill="#ffffff"/><path d="M 342.2,612.0 L 347.0,607.2 L 351.8,612.0 L 347.0,616.8 Z" fill="#ffffff"/><path d="M 358.1,612.0 L 362.9,607.2 L 367.7,612.0 L 362.9,616.8 Z" fill="#ffffff"/><path d="M 374.0,612.0 L 378.8,607.2 L 383.6,612.0 L 378.8,616.8 Z" fill="#ffffff"/><path d="M 389.9,612.0 L 394.7,607.2 L 399.5,612.0 L 394.7,616.8 Z" fill="#ffffff"/><path d="M 405.8,612.0 L 410.6,607.2 L 415.4,612.0 L 410.6,616.8 Z" fill="#ffffff"/><path d="M 421.6,612.0 L 426.4,607.2 L 431.2,612.0 L 426.4,616.8 Z" fill="#ffffff"/><path d="M 437.5,612.0 L 442.3,607.2 L 447.1,612.0 L 442.3,616.8 Z" fill="#ffffff"/><path d="M 453.4,612.0 L 458.2,607.2 L 463.0,612.0 L 458.2,616.8 Z" fill="#ffffff"/><path d="M 469.3,612.0 L 474.1,607.2 L 478.9,612.0 L 474.1,616.8 Z" fill="#ffffff"/><path d="M 485.2,612.0 L 490.0,607.2 L 494.8,612.0 L 490.0,616.8 Z" fill="#ffffff"/><path d="M 501.1,612.0 L 505.9,607.2 L 510.7,612.0 L 505.9,616.8 Z" fill="#ffffff"/><path d="M 517.0,612.0 L 521.8,607.2 L 526.6,612.0 L 521.8,616.8 Z" fill="#ffffff"/><path d="M 532.8,612.0 L 537.6,607.2 L 542.4,612.0 L 537.6,616.8 Z" fill="#ffffff"/><path d="M 548.7,612.0 L 553.5,607.2 L 558.3,612.0 L 553.5,616.8 Z" fill="#ffffff"/><path d="M 564.6,612.0 L 569.4,607.2 L 574.2,612.0 L 569.4,616.8 Z" fill="#ffffff"/><path d="M 580.5,612.0 L 585.3,607.2 L 590.1,612.0 L 585.3,616.8 Z" fill="#ffffff"/><path d="M 596.4,612.0 L 601.2,607.2 L 606.0,612.0 L 601.2,616.8 Z" fill="#ffffff"/><path d="M 612.3,612.0 L 617.1,607.2 L 621.9,612.0 L 617.1,616.8 Z" fill="#ffffff"/><path d="M 628.1,612.0 L 632.9,607.2 L 637.7,612.0 L 632.9,616.8 Z" fill="#ffffff"/><path d="M 644.0,612.0 L 648.8,607.2 L 653.6,612.0 L 648.8,616.8 Z" fill="#ffffff"/><path d="M 659.9,612.0 L 664.7,607.2 L 669.5,612.0 L 664.7,616.8 Z" fill="#ffffff"/><path d="M 675.8,612.0 L 680.6,607.2 L 685.4,612.0 L 680.6,616.8 Z" fill="#ffffff"/><path d="M 691.7,612.0 L 696.5,607.2 L 701.3,612.0 L 696.5,616.8 Z" fill="#ffffff"/><path d="M 707.6,612.0 L 712.4,607.2 L 717.2,612.0 L 712.4,616.8 Z" fill="#ffffff"/><path d="M 723.4,612.0 L 728.2,607.2 L 733.0,612.0 L 728.2,616.8 Z" fill="#ffffff"/><path d="M 739.3,612.0 L 744.1,607.2 L 748.9,612.0 L 744.1,616.8 Z" fill="#ffffff"/><path d="M 755.2,612.0 L 760.0,607.2 L 764.8,612.0 L 760.0,616.8 Z" fill="#ffffff"/><path d="M 771.1,612.0 L 775.9,607.2 L 780.7,612.0 L 775.9,616.8 Z" fill="#ffffff"/><path d="M 787.0,612.0 L 791.8,607.2 L 796.6,612.0 L 791.8,616.8 Z" fill="#ffffff"/><path d="M 802.9,612.0 L 807.7,607.2 L 812.5,612.0 L 807.7,616.8 Z" fill="#ffffff"/><path d="M 818.8,612.0 L 823.6,607.2 L 828.4,612.0 L 823.6,616.8 Z" fill="#ffffff"/><path d="M 834.6,612.0 L 839.4,607.2 L 844.2,612.0 L 839.4,616.8 Z" fill="#ffffff"/><path d="M 850.5,612.0 L 855.3,607.2 L 860.1,612.0 L 855.3,616.8 Z" fill="#ffffff"/><path d="M 866.4,612.0 L 871.2,607.2 L 876.0,612.0 L 871.2,616.8 Z" fill="#ffffff"/><path d="M 882.3,612.0 L 887.1,607.2 L 891.9,612.0 L 887.1,616.8 Z" fill="#ffffff"/><path d="M 898.2,612.0 L 903.0,607.2 L 907.8,612.0 L 903.0,616.8 Z" fill="#ffffff"/><path d="M 914.1,612.0 L 918.9,607.2 L 923.7,612.0 L 918.9,616.8 Z" fill="#ffffff"/><path d="M 929.9,612.0 L 934.7,607.2 L 939.5,612.0 L 934.7,616.8 Z" fill="#ffffff"/><path d="M 945.8,612.0 L 950.6,607.2 L 955.4,612.0 L 950.6,616.8 Z" fill="#ffffff"/><path d="M 961.7,612.0 L 966.5,607.2 L 971.3,612.0 L 966.5,616.8 Z" fill="#ffffff"/><path d="M 977.6,612.0 L 982.4,607.2 L 987.2,612.0 L 982.4,616.8 Z" fill="#ffffff"/><path d="M 993.5,612.0 L 998.3,607.2 L 1003.1,612.0 L 998.3,616.8 Z" fill="#ffffff"/><path d="M 1009.4,612.0 L 1014.2,607.2 L 1019.0,612.0 L 1014.2,616.8 Z" fill="#ffffff"/><path d="M 1025.2,612.0 L 1030.0,607.2 L 1034.8,612.0 L 1030.0,616.8 Z" fill="#ffffff"/><path d="M 1041.1,612.0 L 1045.9,607.2 L 1050.7,612.0 L 1045.9,616.8 Z" fill="#ffffff"/><path d="M 1057.0,612.0 L 1061.8,607.2 L 1066.6,612.0 L 1061.8,616.8 Z" fill="#ffffff"/><path d="M 1072.9,612.0 L 1077.7,607.2 L 1082.5,612.0 L 1077.7,616.8 Z" fill="#ffffff"/><path d="M 1088.8,612.0 L 1093.6,607.2 L 1098.4,612.0 L 1093.6,616.8 Z" fill="#ffffff"/><path d="M 1104.7,612.0 L 1109.5,607.2 L 1114.3,612.0 L 1109.5,616.8 Z" fill="#ffffff"/><path d="M 1120.5,612.0 L 1125.3,607.2 L 1130.1,612.0 L 1125.3,616.8 Z" fill="#ffffff"/><path d="M 1136.4,612.0 L 1141.2,607.2 L 1146.0,612.0 L 1141.2,616.8 Z" fill="#ffffff"/><path d="M 1152.3,612.0 L 1157.1,607.2 L 1161.9,612.0 L 1157.1,616.8 Z" fill="#ffffff"/><path d="M 1168.2,612.0 L 1173.0,607.2 L 1177.8,612.0 L 1173.0,616.8 Z" fill="#ffffff"/><path d="M 72.2,1763.0 L 77.0,1758.2 L 81.8,1763.0 L 77.0,1767.8 Z" fill="#ffffff"/><path d="M 88.1,1763.0 L 92.9,1758.2 L 97.7,1763.0 L 92.9,1767.8 Z" fill="#ffffff"/><path d="M 104.0,1763.0 L 108.8,1758.2 L 113.6,1763.0 L 108.8,1767.8 Z" fill="#ffffff"/><path d="M 119.9,1763.0 L 124.7,1758.2 L 129.5,1763.0 L 124.7,1767.8 Z" fill="#ffffff"/><path d="M 135.7,1763.0 L 140.5,1758.2 L 145.3,1763.0 L 140.5,1767.8 Z" fill="#ffffff"/><path d="M 151.6,1763.0 L 156.4,1758.2 L 161.2,1763.0 L 156.4,1767.8 Z" fill="#ffffff"/><path d="M 167.5,1763.0 L 172.3,1758.2 L 177.1,1763.0 L 172.3,1767.8 Z" fill="#ffffff"/><path d="M 183.4,1763.0 L 188.2,1758.2 L 193.0,1763.0 L 188.2,1767.8 Z" fill="#ffffff"/><path d="M 199.3,1763.0 L 204.1,1758.2 L 208.9,1763.0 L 204.1,1767.8 Z" fill="#ffffff"/><path d="M 215.2,1763.0 L 220.0,1758.2 L 224.8,1763.0 L 220.0,1767.8 Z" fill="#ffffff"/><path d="M 231.0,1763.0 L 235.8,1758.2 L 240.6,1763.0 L 235.8,1767.8 Z" fill="#ffffff"/><path d="M 246.9,1763.0 L 251.7,1758.2 L 256.5,1763.0 L 251.7,1767.8 Z" fill="#ffffff"/><path d="M 262.8,1763.0 L 267.6,1758.2 L 272.4,1763.0 L 267.6,1767.8 Z" fill="#ffffff"/><path d="M 278.7,1763.0 L 283.5,1758.2 L 288.3,1763.0 L 283.5,1767.8 Z" fill="#ffffff"/><path d="M 294.6,1763.0 L 299.4,1758.2 L 304.2,1763.0 L 299.4,1767.8 Z" fill="#ffffff"/><path d="M 310.5,1763.0 L 315.3,1758.2 L 320.1,1763.0 L 315.3,1767.8 Z" fill="#ffffff"/><path d="M 326.3,1763.0 L 331.1,1758.2 L 335.9,1763.0 L 331.1,1767.8 Z" fill="#ffffff"/><path d="M 342.2,1763.0 L 347.0,1758.2 L 351.8,1763.0 L 347.0,1767.8 Z" fill="#ffffff"/><path d="M 358.1,1763.0 L 362.9,1758.2 L 367.7,1763.0 L 362.9,1767.8 Z" fill="#ffffff"/><path d="M 374.0,1763.0 L 378.8,1758.2 L 383.6,1763.0 L 378.8,1767.8 Z" fill="#ffffff"/><path d="M 389.9,1763.0 L 394.7,1758.2 L 399.5,1763.0 L 394.7,1767.8 Z" fill="#ffffff"/><path d="M 405.8,1763.0 L 410.6,1758.2 L 415.4,1763.0 L 410.6,1767.8 Z" fill="#ffffff"/><path d="M 421.6,1763.0 L 426.4,1758.2 L 431.2,1763.0 L 426.4,1767.8 Z" fill="#ffffff"/><path d="M 437.5,1763.0 L 442.3,1758.2 L 447.1,1763.0 L 442.3,1767.8 Z" fill="#ffffff"/><path d="M 453.4,1763.0 L 458.2,1758.2 L 463.0,1763.0 L 458.2,1767.8 Z" fill="#ffffff"/><path d="M 469.3,1763.0 L 474.1,1758.2 L 478.9,1763.0 L 474.1,1767.8 Z" fill="#ffffff"/><path d="M 485.2,1763.0 L 490.0,1758.2 L 494.8,1763.0 L 490.0,1767.8 Z" fill="#ffffff"/><path d="M 501.1,1763.0 L 505.9,1758.2 L 510.7,1763.0 L 505.9,1767.8 Z" fill="#ffffff"/><path d="M 517.0,1763.0 L 521.8,1758.2 L 526.6,1763.0 L 521.8,1767.8 Z" fill="#ffffff"/><path d="M 532.8,1763.0 L 537.6,1758.2 L 542.4,1763.0 L 537.6,1767.8 Z" fill="#ffffff"/><path d="M 548.7,1763.0 L 553.5,1758.2 L 558.3,1763.0 L 553.5,1767.8 Z" fill="#ffffff"/><path d="M 564.6,1763.0 L 569.4,1758.2 L 574.2,1763.0 L 569.4,1767.8 Z" fill="#ffffff"/><path d="M 580.5,1763.0 L 585.3,1758.2 L 590.1,1763.0 L 585.3,1767.8 Z" fill="#ffffff"/><path d="M 596.4,1763.0 L 601.2,1758.2 L 606.0,1763.0 L 601.2,1767.8 Z" fill="#ffffff"/><path d="M 612.3,1763.0 L 617.1,1758.2 L 621.9,1763.0 L 617.1,1767.8 Z" fill="#ffffff"/><path d="M 628.1,1763.0 L 632.9,1758.2 L 637.7,1763.0 L 632.9,1767.8 Z" fill="#ffffff"/><path d="M 644.0,1763.0 L 648.8,1758.2 L 653.6,1763.0 L 648.8,1767.8 Z" fill="#ffffff"/><path d="M 659.9,1763.0 L 664.7,1758.2 L 669.5,1763.0 L 664.7,1767.8 Z" fill="#ffffff"/><path d="M 675.8,1763.0 L 680.6,1758.2 L 685.4,1763.0 L 680.6,1767.8 Z" fill="#ffffff"/><path d="M 691.7,1763.0 L 696.5,1758.2 L 701.3,1763.0 L 696.5,1767.8 Z" fill="#ffffff"/><path d="M 707.6,1763.0 L 712.4,1758.2 L 717.2,1763.0 L 712.4,1767.8 Z" fill="#ffffff"/><path d="M 723.4,1763.0 L 728.2,1758.2 L 733.0,1763.0 L 728.2,1767.8 Z" fill="#ffffff"/><path d="M 739.3,1763.0 L 744.1,1758.2 L 748.9,1763.0 L 744.1,1767.8 Z" fill="#ffffff"/><path d="M 755.2,1763.0 L 760.0,1758.2 L 764.8,1763.0 L 760.0,1767.8 Z" fill="#ffffff"/><path d="M 771.1,1763.0 L 775.9,1758.2 L 780.7,1763.0 L 775.9,1767.8 Z" fill="#ffffff"/><path d="M 787.0,1763.0 L 791.8,1758.2 L 796.6,1763.0 L 791.8,1767.8 Z" fill="#ffffff"/><path d="M 802.9,1763.0 L 807.7,1758.2 L 812.5,1763.0 L 807.7,1767.8 Z" fill="#ffffff"/><path d="M 818.8,1763.0 L 823.6,1758.2 L 828.4,1763.0 L 823.6,1767.8 Z" fill="#ffffff"/><path d="M 834.6,1763.0 L 839.4,1758.2 L 844.2,1763.0 L 839.4,1767.8 Z" fill="#ffffff"/><path d="M 850.5,1763.0 L 855.3,1758.2 L 860.1,1763.0 L 855.3,1767.8 Z" fill="#ffffff"/><path d="M 866.4,1763.0 L 871.2,1758.2 L 876.0,1763.0 L 871.2,1767.8 Z" fill="#ffffff"/><path d="M 882.3,1763.0 L 887.1,1758.2 L 891.9,1763.0 L 887.1,1767.8 Z" fill="#ffffff"/><path d="M 898.2,1763.0 L 903.0,1758.2 L 907.8,1763.0 L 903.0,1767.8 Z" fill="#ffffff"/><path d="M 914.1,1763.0 L 918.9,1758.2 L 923.7,1763.0 L 918.9,1767.8 Z" fill="#ffffff"/><path d="M 929.9,1763.0 L 934.7,1758.2 L 939.5,1763.0 L 934.7,1767.8 Z" fill="#ffffff"/><path d="M 945.8,1763.0 L 950.6,1758.2 L 955.4,1763.0 L 950.6,1767.8 Z" fill="#ffffff"/><path d="M 961.7,1763.0 L 966.5,1758.2 L 971.3,1763.0 L 966.5,1767.8 Z" fill="#ffffff"/><path d="M 977.6,1763.0 L 982.4,1758.2 L 987.2,1763.0 L 982.4,1767.8 Z" fill="#ffffff"/><path d="M 993.5,1763.0 L 998.3,1758.2 L 1003.1,1763.0 L 998.3,1767.8 Z" fill="#ffffff"/><path d="M 1009.4,1763.0 L 1014.2,1758.2 L 1019.0,1763.0 L 1014.2,1767.8 Z" fill="#ffffff"/><path d="M 1025.2,1763.0 L 1030.0,1758.2 L 1034.8,1763.0 L 1030.0,1767.8 Z" fill="#ffffff"/><path d="M 1041.1,1763.0 L 1045.9,1758.2 L 1050.7,1763.0 L 1045.9,1767.8 Z" fill="#ffffff"/><path d="M 1057.0,1763.0 L 1061.8,1758.2 L 1066.6,1763.0 L 1061.8,1767.8 Z" fill="#ffffff"/><path d="M 1072.9,1763.0 L 1077.7,1758.2 L 1082.5,1763.0 L 1077.7,1767.8 Z" fill="#ffffff"/><path d="M 1088.8,1763.0 L 1093.6,1758.2 L 1098.4,1763.0 L 1093.6,1767.8 Z" fill="#ffffff"/><path d="M 1104.7,1763.0 L 1109.5,1758.2 L 1114.3,1763.0 L 1109.5,1767.8 Z" fill="#ffffff"/><path d="M 1120.5,1763.0 L 1125.3,1758.2 L 1130.1,1763.0 L 1125.3,1767.8 Z" fill="#ffffff"/><path d="M 1136.4,1763.0 L 1141.2,1758.2 L 1146.0,1763.0 L 1141.2,1767.8 Z" fill="#ffffff"/><path d="M 1152.3,1763.0 L 1157.1,1758.2 L 1161.9,1763.0 L 1157.1,1767.8 Z" fill="#ffffff"/><path d="M 1168.2,1763.0 L 1173.0,1758.2 L 1177.8,1763.0 L 1173.0,1767.8 Z" fill="#ffffff"/><path d="M 72.2,612.0 L 77.0,607.2 L 81.8,612.0 L 77.0,616.8 Z" fill="#ffffff"/><path d="M 72.2,627.8 L 77.0,623.0 L 81.8,627.8 L 77.0,632.6 Z" fill="#ffffff"/><path d="M 72.2,643.5 L 77.0,638.7 L 81.8,643.5 L 77.0,648.3 Z" fill="#ffffff"/><path d="M 72.2,659.3 L 77.0,654.5 L 81.8,659.3 L 77.0,664.1 Z" fill="#ffffff"/><path d="M 72.2,675.1 L 77.0,670.3 L 81.8,675.1 L 77.0,679.9 Z" fill="#ffffff"/><path d="M 72.2,690.8 L 77.0,686.0 L 81.8,690.8 L 77.0,695.6 Z" fill="#ffffff"/><path d="M 72.2,706.6 L 77.0,701.8 L 81.8,706.6 L 77.0,711.4 Z" fill="#ffffff"/><path d="M 72.2,722.4 L 77.0,717.6 L 81.8,722.4 L 77.0,727.2 Z" fill="#ffffff"/><path d="M 72.2,738.1 L 77.0,733.3 L 81.8,738.1 L 77.0,742.9 Z" fill="#ffffff"/><path d="M 72.2,753.9 L 77.0,749.1 L 81.8,753.9 L 77.0,758.7 Z" fill="#ffffff"/><path d="M 72.2,769.7 L 77.0,764.9 L 81.8,769.7 L 77.0,774.5 Z" fill="#ffffff"/><path d="M 72.2,785.4 L 77.0,780.6 L 81.8,785.4 L 77.0,790.2 Z" fill="#ffffff"/><path d="M 72.2,801.2 L 77.0,796.4 L 81.8,801.2 L 77.0,806.0 Z" fill="#ffffff"/><path d="M 72.2,817.0 L 77.0,812.2 L 81.8,817.0 L 77.0,821.8 Z" fill="#ffffff"/><path d="M 72.2,832.7 L 77.0,827.9 L 81.8,832.7 L 77.0,837.5 Z" fill="#ffffff"/><path d="M 72.2,848.5 L 77.0,843.7 L 81.8,848.5 L 77.0,853.3 Z" fill="#ffffff"/><path d="M 72.2,864.3 L 77.0,859.5 L 81.8,864.3 L 77.0,869.1 Z" fill="#ffffff"/><path d="M 72.2,880.0 L 77.0,875.2 L 81.8,880.0 L 77.0,884.8 Z" fill="#ffffff"/><path d="M 72.2,895.8 L 77.0,891.0 L 81.8,895.8 L 77.0,900.6 Z" fill="#ffffff"/><path d="M 72.2,911.6 L 77.0,906.8 L 81.8,911.6 L 77.0,916.4 Z" fill="#ffffff"/><path d="M 72.2,927.3 L 77.0,922.5 L 81.8,927.3 L 77.0,932.1 Z" fill="#ffffff"/><path d="M 72.2,943.1 L 77.0,938.3 L 81.8,943.1 L 77.0,947.9 Z" fill="#ffffff"/><path d="M 72.2,958.9 L 77.0,954.1 L 81.8,958.9 L 77.0,963.7 Z" fill="#ffffff"/><path d="M 72.2,974.6 L 77.0,969.8 L 81.8,974.6 L 77.0,979.4 Z" fill="#ffffff"/><path d="M 72.2,990.4 L 77.0,985.6 L 81.8,990.4 L 77.0,995.2 Z" fill="#ffffff"/><path d="M 72.2,1006.2 L 77.0,1001.4 L 81.8,1006.2 L 77.0,1011.0 Z" fill="#ffffff"/><path d="M 72.2,1021.9 L 77.0,1017.1 L 81.8,1021.9 L 77.0,1026.7 Z" fill="#ffffff"/><path d="M 72.2,1037.7 L 77.0,1032.9 L 81.8,1037.7 L 77.0,1042.5 Z" fill="#ffffff"/><path d="M 72.2,1053.5 L 77.0,1048.7 L 81.8,1053.5 L 77.0,1058.3 Z" fill="#ffffff"/><path d="M 72.2,1069.2 L 77.0,1064.4 L 81.8,1069.2 L 77.0,1074.0 Z" fill="#ffffff"/><path d="M 72.2,1085.0 L 77.0,1080.2 L 81.8,1085.0 L 77.0,1089.8 Z" fill="#ffffff"/><path d="M 72.2,1100.8 L 77.0,1096.0 L 81.8,1100.8 L 77.0,1105.6 Z" fill="#ffffff"/><path d="M 72.2,1116.5 L 77.0,1111.7 L 81.8,1116.5 L 77.0,1121.3 Z" fill="#ffffff"/><path d="M 72.2,1132.3 L 77.0,1127.5 L 81.8,1132.3 L 77.0,1137.1 Z" fill="#ffffff"/><path d="M 72.2,1148.1 L 77.0,1143.3 L 81.8,1148.1 L 77.0,1152.9 Z" fill="#ffffff"/><path d="M 72.2,1163.8 L 77.0,1159.0 L 81.8,1163.8 L 77.0,1168.6 Z" fill="#ffffff"/><path d="M 72.2,1179.6 L 77.0,1174.8 L 81.8,1179.6 L 77.0,1184.4 Z" fill="#ffffff"/><path d="M 72.2,1195.4 L 77.0,1190.6 L 81.8,1195.4 L 77.0,1200.2 Z" fill="#ffffff"/><path d="M 72.2,1211.2 L 77.0,1206.4 L 81.8,1211.2 L 77.0,1216.0 Z" fill="#ffffff"/><path d="M 72.2,1226.9 L 77.0,1222.1 L 81.8,1226.9 L 77.0,1231.7 Z" fill="#ffffff"/><path d="M 72.2,1242.7 L 77.0,1237.9 L 81.8,1242.7 L 77.0,1247.5 Z" fill="#ffffff"/><path d="M 72.2,1258.5 L 77.0,1253.7 L 81.8,1258.5 L 77.0,1263.3 Z" fill="#ffffff"/><path d="M 72.2,1274.2 L 77.0,1269.4 L 81.8,1274.2 L 77.0,1279.0 Z" fill="#ffffff"/><path d="M 72.2,1290.0 L 77.0,1285.2 L 81.8,1290.0 L 77.0,1294.8 Z" fill="#ffffff"/><path d="M 72.2,1305.8 L 77.0,1301.0 L 81.8,1305.8 L 77.0,1310.6 Z" fill="#ffffff"/><path d="M 72.2,1321.5 L 77.0,1316.7 L 81.8,1321.5 L 77.0,1326.3 Z" fill="#ffffff"/><path d="M 72.2,1337.3 L 77.0,1332.5 L 81.8,1337.3 L 77.0,1342.1 Z" fill="#ffffff"/><path d="M 72.2,1353.1 L 77.0,1348.3 L 81.8,1353.1 L 77.0,1357.9 Z" fill="#ffffff"/><path d="M 72.2,1368.8 L 77.0,1364.0 L 81.8,1368.8 L 77.0,1373.6 Z" fill="#ffffff"/><path d="M 72.2,1384.6 L 77.0,1379.8 L 81.8,1384.6 L 77.0,1389.4 Z" fill="#ffffff"/><path d="M 72.2,1400.4 L 77.0,1395.6 L 81.8,1400.4 L 77.0,1405.2 Z" fill="#ffffff"/><path d="M 72.2,1416.1 L 77.0,1411.3 L 81.8,1416.1 L 77.0,1420.9 Z" fill="#ffffff"/><path d="M 72.2,1431.9 L 77.0,1427.1 L 81.8,1431.9 L 77.0,1436.7 Z" fill="#ffffff"/><path d="M 72.2,1447.7 L 77.0,1442.9 L 81.8,1447.7 L 77.0,1452.5 Z" fill="#ffffff"/><path d="M 72.2,1463.4 L 77.0,1458.6 L 81.8,1463.4 L 77.0,1468.2 Z" fill="#ffffff"/><path d="M 72.2,1479.2 L 77.0,1474.4 L 81.8,1479.2 L 77.0,1484.0 Z" fill="#ffffff"/><path d="M 72.2,1495.0 L 77.0,1490.2 L 81.8,1495.0 L 77.0,1499.8 Z" fill="#ffffff"/><path d="M 72.2,1510.7 L 77.0,1505.9 L 81.8,1510.7 L 77.0,1515.5 Z" fill="#ffffff"/><path d="M 72.2,1526.5 L 77.0,1521.7 L 81.8,1526.5 L 77.0,1531.3 Z" fill="#ffffff"/><path d="M 72.2,1542.3 L 77.0,1537.5 L 81.8,1542.3 L 77.0,1547.1 Z" fill="#ffffff"/><path d="M 72.2,1558.0 L 77.0,1553.2 L 81.8,1558.0 L 77.0,1562.8 Z" fill="#ffffff"/><path d="M 72.2,1573.8 L 77.0,1569.0 L 81.8,1573.8 L 77.0,1578.6 Z" fill="#ffffff"/><path d="M 72.2,1589.6 L 77.0,1584.8 L 81.8,1589.6 L 77.0,1594.4 Z" fill="#ffffff"/><path d="M 72.2,1605.3 L 77.0,1600.5 L 81.8,1605.3 L 77.0,1610.1 Z" fill="#ffffff"/><path d="M 72.2,1621.1 L 77.0,1616.3 L 81.8,1621.1 L 77.0,1625.9 Z" fill="#ffffff"/><path d="M 72.2,1636.9 L 77.0,1632.1 L 81.8,1636.9 L 77.0,1641.7 Z" fill="#ffffff"/><path d="M 72.2,1652.6 L 77.0,1647.8 L 81.8,1652.6 L 77.0,1657.4 Z" fill="#ffffff"/><path d="M 72.2,1668.4 L 77.0,1663.6 L 81.8,1668.4 L 77.0,1673.2 Z" fill="#ffffff"/><path d="M 72.2,1684.2 L 77.0,1679.4 L 81.8,1684.2 L 77.0,1689.0 Z" fill="#ffffff"/><path d="M 72.2,1699.9 L 77.0,1695.1 L 81.8,1699.9 L 77.0,1704.7 Z" fill="#ffffff"/><path d="M 72.2,1715.7 L 77.0,1710.9 L 81.8,1715.7 L 77.0,1720.5 Z" fill="#ffffff"/><path d="M 72.2,1731.5 L 77.0,1726.7 L 81.8,1731.5 L 77.0,1736.3 Z" fill="#ffffff"/><path d="M 72.2,1747.2 L 77.0,1742.4 L 81.8,1747.2 L 77.0,1752.0 Z" fill="#ffffff"/><path d="M 72.2,1763.0 L 77.0,1758.2 L 81.8,1763.0 L 77.0,1767.8 Z" fill="#ffffff"/><path d="M 1168.2,612.0 L 1173.0,607.2 L 1177.8,612.0 L 1173.0,616.8 Z" fill="#ffffff"/><path d="M 1168.2,627.8 L 1173.0,623.0 L 1177.8,627.8 L 1173.0,632.6 Z" fill="#ffffff"/><path d="M 1168.2,643.5 L 1173.0,638.7 L 1177.8,643.5 L 1173.0,648.3 Z" fill="#ffffff"/><path d="M 1168.2,659.3 L 1173.0,654.5 L 1177.8,659.3 L 1173.0,664.1 Z" fill="#ffffff"/><path d="M 1168.2,675.1 L 1173.0,670.3 L 1177.8,675.1 L 1173.0,679.9 Z" fill="#ffffff"/><path d="M 1168.2,690.8 L 1173.0,686.0 L 1177.8,690.8 L 1173.0,695.6 Z" fill="#ffffff"/><path d="M 1168.2,706.6 L 1173.0,701.8 L 1177.8,706.6 L 1173.0,711.4 Z" fill="#ffffff"/><path d="M 1168.2,722.4 L 1173.0,717.6 L 1177.8,722.4 L 1173.0,727.2 Z" fill="#ffffff"/><path d="M 1168.2,738.1 L 1173.0,733.3 L 1177.8,738.1 L 1173.0,742.9 Z" fill="#ffffff"/><path d="M 1168.2,753.9 L 1173.0,749.1 L 1177.8,753.9 L 1173.0,758.7 Z" fill="#ffffff"/><path d="M 1168.2,769.7 L 1173.0,764.9 L 1177.8,769.7 L 1173.0,774.5 Z" fill="#ffffff"/><path d="M 1168.2,785.4 L 1173.0,780.6 L 1177.8,785.4 L 1173.0,790.2 Z" fill="#ffffff"/><path d="M 1168.2,801.2 L 1173.0,796.4 L 1177.8,801.2 L 1173.0,806.0 Z" fill="#ffffff"/><path d="M 1168.2,817.0 L 1173.0,812.2 L 1177.8,817.0 L 1173.0,821.8 Z" fill="#ffffff"/><path d="M 1168.2,832.7 L 1173.0,827.9 L 1177.8,832.7 L 1173.0,837.5 Z" fill="#ffffff"/><path d="M 1168.2,848.5 L 1173.0,843.7 L 1177.8,848.5 L 1173.0,853.3 Z" fill="#ffffff"/><path d="M 1168.2,864.3 L 1173.0,859.5 L 1177.8,864.3 L 1173.0,869.1 Z" fill="#ffffff"/><path d="M 1168.2,880.0 L 1173.0,875.2 L 1177.8,880.0 L 1173.0,884.8 Z" fill="#ffffff"/><path d="M 1168.2,895.8 L 1173.0,891.0 L 1177.8,895.8 L 1173.0,900.6 Z" fill="#ffffff"/><path d="M 1168.2,911.6 L 1173.0,906.8 L 1177.8,911.6 L 1173.0,916.4 Z" fill="#ffffff"/><path d="M 1168.2,927.3 L 1173.0,922.5 L 1177.8,927.3 L 1173.0,932.1 Z" fill="#ffffff"/><path d="M 1168.2,943.1 L 1173.0,938.3 L 1177.8,943.1 L 1173.0,947.9 Z" fill="#ffffff"/><path d="M 1168.2,958.9 L 1173.0,954.1 L 1177.8,958.9 L 1173.0,963.7 Z" fill="#ffffff"/><path d="M 1168.2,974.6 L 1173.0,969.8 L 1177.8,974.6 L 1173.0,979.4 Z" fill="#ffffff"/><path d="M 1168.2,990.4 L 1173.0,985.6 L 1177.8,990.4 L 1173.0,995.2 Z" fill="#ffffff"/><path d="M 1168.2,1006.2 L 1173.0,1001.4 L 1177.8,1006.2 L 1173.0,1011.0 Z" fill="#ffffff"/><path d="M 1168.2,1021.9 L 1173.0,1017.1 L 1177.8,1021.9 L 1173.0,1026.7 Z" fill="#ffffff"/><path d="M 1168.2,1037.7 L 1173.0,1032.9 L 1177.8,1037.7 L 1173.0,1042.5 Z" fill="#ffffff"/><path d="M 1168.2,1053.5 L 1173.0,1048.7 L 1177.8,1053.5 L 1173.0,1058.3 Z" fill="#ffffff"/><path d="M 1168.2,1069.2 L 1173.0,1064.4 L 1177.8,1069.2 L 1173.0,1074.0 Z" fill="#ffffff"/><path d="M 1168.2,1085.0 L 1173.0,1080.2 L 1177.8,1085.0 L 1173.0,1089.8 Z" fill="#ffffff"/><path d="M 1168.2,1100.8 L 1173.0,1096.0 L 1177.8,1100.8 L 1173.0,1105.6 Z" fill="#ffffff"/><path d="M 1168.2,1116.5 L 1173.0,1111.7 L 1177.8,1116.5 L 1173.0,1121.3 Z" fill="#ffffff"/><path d="M 1168.2,1132.3 L 1173.0,1127.5 L 1177.8,1132.3 L 1173.0,1137.1 Z" fill="#ffffff"/><path d="M 1168.2,1148.1 L 1173.0,1143.3 L 1177.8,1148.1 L 1173.0,1152.9 Z" fill="#ffffff"/><path d="M 1168.2,1163.8 L 1173.0,1159.0 L 1177.8,1163.8 L 1173.0,1168.6 Z" fill="#ffffff"/><path d="M 1168.2,1179.6 L 1173.0,1174.8 L 1177.8,1179.6 L 1173.0,1184.4 Z" fill="#ffffff"/><path d="M 1168.2,1195.4 L 1173.0,1190.6 L 1177.8,1195.4 L 1173.0,1200.2 Z" fill="#ffffff"/><path d="M 1168.2,1211.2 L 1173.0,1206.4 L 1177.8,1211.2 L 1173.0,1216.0 Z" fill="#ffffff"/><path d="M 1168.2,1226.9 L 1173.0,1222.1 L 1177.8,1226.9 L 1173.0,1231.7 Z" fill="#ffffff"/><path d="M 1168.2,1242.7 L 1173.0,1237.9 L 1177.8,1242.7 L 1173.0,1247.5 Z" fill="#ffffff"/><path d="M 1168.2,1258.5 L 1173.0,1253.7 L 1177.8,1258.5 L 1173.0,1263.3 Z" fill="#ffffff"/><path d="M 1168.2,1274.2 L 1173.0,1269.4 L 1177.8,1274.2 L 1173.0,1279.0 Z" fill="#ffffff"/><path d="M 1168.2,1290.0 L 1173.0,1285.2 L 1177.8,1290.0 L 1173.0,1294.8 Z" fill="#ffffff"/><path d="M 1168.2,1305.8 L 1173.0,1301.0 L 1177.8,1305.8 L 1173.0,1310.6 Z" fill="#ffffff"/><path d="M 1168.2,1321.5 L 1173.0,1316.7 L 1177.8,1321.5 L 1173.0,1326.3 Z" fill="#ffffff"/><path d="M 1168.2,1337.3 L 1173.0,1332.5 L 1177.8,1337.3 L 1173.0,1342.1 Z" fill="#ffffff"/><path d="M 1168.2,1353.1 L 1173.0,1348.3 L 1177.8,1353.1 L 1173.0,1357.9 Z" fill="#ffffff"/><path d="M 1168.2,1368.8 L 1173.0,1364.0 L 1177.8,1368.8 L 1173.0,1373.6 Z" fill="#ffffff"/><path d="M 1168.2,1384.6 L 1173.0,1379.8 L 1177.8,1384.6 L 1173.0,1389.4 Z" fill="#ffffff"/><path d="M 1168.2,1400.4 L 1173.0,1395.6 L 1177.8,1400.4 L 1173.0,1405.2 Z" fill="#ffffff"/><path d="M 1168.2,1416.1 L 1173.0,1411.3 L 1177.8,1416.1 L 1173.0,1420.9 Z" fill="#ffffff"/><path d="M 1168.2,1431.9 L 1173.0,1427.1 L 1177.8,1431.9 L 1173.0,1436.7 Z" fill="#ffffff"/><path d="M 1168.2,1447.7 L 1173.0,1442.9 L 1177.8,1447.7 L 1173.0,1452.5 Z" fill="#ffffff"/><path d="M 1168.2,1463.4 L 1173.0,1458.6 L 1177.8,1463.4 L 1173.0,1468.2 Z" fill="#ffffff"/><path d="M 1168.2,1479.2 L 1173.0,1474.4 L 1177.8,1479.2 L 1173.0,1484.0 Z" fill="#ffffff"/><path d="M 1168.2,1495.0 L 1173.0,1490.2 L 1177.8,1495.0 L 1173.0,1499.8 Z" fill="#ffffff"/><path d="M 1168.2,1510.7 L 1173.0,1505.9 L 1177.8,1510.7 L 1173.0,1515.5 Z" fill="#ffffff"/><path d="M 1168.2,1526.5 L 1173.0,1521.7 L 1177.8,1526.5 L 1173.0,1531.3 Z" fill="#ffffff"/><path d="M 1168.2,1542.3 L 1173.0,1537.5 L 1177.8,1542.3 L 1173.0,1547.1 Z" fill="#ffffff"/><path d="M 1168.2,1558.0 L 1173.0,1553.2 L 1177.8,1558.0 L 1173.0,1562.8 Z" fill="#ffffff"/><path d="M 1168.2,1573.8 L 1173.0,1569.0 L 1177.8,1573.8 L 1173.0,1578.6 Z" fill="#ffffff"/><path d="M 1168.2,1589.6 L 1173.0,1584.8 L 1177.8,1589.6 L 1173.0,1594.4 Z" fill="#ffffff"/><path d="M 1168.2,1605.3 L 1173.0,1600.5 L 1177.8,1605.3 L 1173.0,1610.1 Z" fill="#ffffff"/><path d="M 1168.2,1621.1 L 1173.0,1616.3 L 1177.8,1621.1 L 1173.0,1625.9 Z" fill="#ffffff"/><path d="M 1168.2,1636.9 L 1173.0,1632.1 L 1177.8,1636.9 L 1173.0,1641.7 Z" fill="#ffffff"/><path d="M 1168.2,1652.6 L 1173.0,1647.8 L 1177.8,1652.6 L 1173.0,1657.4 Z" fill="#ffffff"/><path d="M 1168.2,1668.4 L 1173.0,1663.6 L 1177.8,1668.4 L 1173.0,1673.2 Z" fill="#ffffff"/><path d="M 1168.2,1684.2 L 1173.0,1679.4 L 1177.8,1684.2 L 1173.0,1689.0 Z" fill="#ffffff"/><path d="M 1168.2,1699.9 L 1173.0,1695.1 L 1177.8,1699.9 L 1173.0,1704.7 Z" fill="#ffffff"/><path d="M 1168.2,1715.7 L 1173.0,1710.9 L 1177.8,1715.7 L 1173.0,1720.5 Z" fill="#ffffff"/><path d="M 1168.2,1731.5 L 1173.0,1726.7 L 1177.8,1731.5 L 1173.0,1736.3 Z" fill="#ffffff"/><path d="M 1168.2,1747.2 L 1173.0,1742.4 L 1177.8,1747.2 L 1173.0,1752.0 Z" fill="#ffffff"/><path d="M 1168.2,1763.0 L 1173.0,1758.2 L 1177.8,1763.0 L 1173.0,1767.8 Z" fill="#ffffff"/><rect x="62.1" y="597.1" width="1125.8" height="1180.8" fill="none" stroke="#8f2b25" stroke-width="1.6"/><rect x="91.9" y="626.9" width="1066.2" height="1121.2" fill="none" stroke="#8f2b25" stroke-width="1.6"/><g transform="translate(515.0,990.0) rotate(-19)"><text x="13.0" y="5.0" font-family="Yatra One" font-size="250.0" text-anchor="middle" stroke-linejoin="round" letter-spacing="6.0" fill="#c8372c" stroke="#c8372c" stroke-width="8.5">Bunji!</text><text x="0.0" y="0.0" font-family="Yatra One" font-size="250.0" text-anchor="middle" stroke-linejoin="round" letter-spacing="6.0" fill="#2b1d1a" stroke="#2b1d1a" stroke-width="8.5">Bunji!</text></g><text x="165.0" y="1225.0" font-family="Old Standard TT" font-weight="700" font-size="24.6" fill="#2b1d1a">No.</text><text x="165.0" y="1263.5" font-family="Old Standard TT" font-size="22.0" fill="#2b1d1a">It isn’t a new-fangled airline diet, nor is it</text><text x="165.0" y="1296.0" font-family="Old Standard TT" font-size="22.0" fill="#2b1d1a">a bungee jump. Bunji is simply our humble bun,</text><text x="165.0" y="1328.5" font-family="Old Standard TT" font-size="22.0" fill="#2b1d1a">dressed up with a little respect. In India we</text><text x="165.0" y="1361.0" font-family="Old Standard TT" font-size="22.0" fill="#2b1d1a">add a ‘ji’ to anyone we hold dear, so why not</text><text x="165.0" y="1393.5" font-family="Old Standard TT" font-size="22.0" fill="#2b1d1a">to the soft, golden, buttery bun that has kept</text><text x="165.0" y="1426.0" font-family="Old Standard TT" font-size="22.0" fill="#2b1d1a">us company over countless cups of chai? Ours</text><text x="165.0" y="1458.5" font-family="Old Standard TT" font-size="22.0" fill="#2b1d1a">is baked fresh every morning, split, filled</text><text x="165.0" y="1491.0" font-family="Old Standard TT" font-size="22.0" fill="#2b1d1a">generously and wrapped while it is still warm.</text><text x="165.0" y="1523.5" font-family="Old Standard TT" font-size="22.0" fill="#2b1d1a">It asks for nothing more than a window seat</text><text x="165.0" y="1556.0" font-family="Old Standard TT" font-size="22.0" fill="#2b1d1a">and a little of your attention. Handle it</text><text x="165.0" y="1588.5" font-family="Old Standard TT" font-size="22.0" fill="#2b1d1a">gently, share it only if you must, and enjoy</text><text x="165.0" y="1621.0" font-family="Old Standard TT" font-size="22.0" fill="#2b1d1a">every last bite before the seat-belt sign</text><text x="165.0" y="1653.5" font-family="Old Standard TT" font-size="22.0" fill="#2b1d1a">comes back on. Bunji. The pleasure is all ours.</text><defs><clipPath id="boxer-clip-0"><path d="M 112,296 C 90,300 76,322 76,352 C 76,392 84,430 96,468 C 102,488 114,498 130,494 L 150,452 C 145,420 142,392 142,362 C 142,332 134,308 112,296 Z"/></clipPath><pattern id="boxer-h0" patternUnits="userSpaceOnUse" width="9.5" height="9.5" patternTransform="rotate(-70)"><rect x="0" y="0" width="9.5" height="2.0" fill="#2b1d1a"/></pattern><pattern id="boxer-h1" patternUnits="userSpaceOnUse" width="8" height="8" patternTransform="rotate(20)"><rect x="0" y="0" width="8" height="2.2" fill="#2b1d1a"/></pattern><clipPath id="boxer-clip-1"><path d="M 146,860 C 150,896 156,922 156,948 C 154,968 142,990 144,1024 C 146,1058 158,1090 168,1126 L 206,1128 C 206,1092 210,1052 214,1016 C 216,990 222,966 226,944 C 230,920 236,896 240,866 Z"/></clipPath><pattern id="boxer-h2" patternUnits="userSpaceOnUse" width="7" height="7" patternTransform="rotate(15)"><rect x="0" y="0" width="7" height="2.8" fill="#2b1d1a"/></pattern><pattern id="boxer-h3" patternUnits="userSpaceOnUse" width="8" height="8" patternTransform="rotate(-55)"><rect x="0" y="0" width="8" height="2.2" fill="#2b1d1a"/></pattern><clipPath id="boxer-clip-2"><path d="M 336,856 C 340,890 344,916 346,940 C 344,962 334,984 338,1016 C 344,1056 364,1096 380,1132 L 426,1132 C 424,1096 424,1060 428,1026 C 432,996 424,970 420,944 C 420,920 428,890 434,854 Z"/></clipPath><pattern id="boxer-h4" patternUnits="userSpaceOnUse" width="9" height="9" patternTransform="rotate(15)"><rect x="0" y="0" width="9" height="2.2" fill="#2b1d1a"/></pattern><clipPath id="boxer-clip-3"><path d="M 146,650 L 405,654 C 421,700 436,760 447,850 C 410,860 364,862 328,857 C 316,827 302,801 286,787 C 272,801 262,831 254,867 C 214,872 176,870 138,864 C 132,790 136,710 146,650 Z"/></clipPath><pattern id="boxer-h5" patternUnits="userSpaceOnUse" width="6.5" height="6.5" patternTransform="rotate(60)"><rect x="0" y="0" width="6.5" height="3.0" fill="#2b1d1a"/></pattern><pattern id="boxer-h6" patternUnits="userSpaceOnUse" width="7.5" height="7.5" patternTransform="rotate(-30)"><rect x="0" y="0" width="7.5" height="2.4" fill="#2b1d1a"/></pattern><clipPath id="boxer-clip-4"><path d="M 108,302 C 150,282 180,274 198,272 L 302,282 C 330,286 350,292 363,303 C 384,330 386,378 376,428 C 368,490 372,580 392,655 L 158,651 C 154,591 148,521 140,471 C 132,421 120,361 108,302 Z"/></clipPath><pattern id="boxer-h7" patternUnits="userSpaceOnUse" width="7.5" height="7.5" patternTransform="rotate(55)"><rect x="0" y="0" width="7.5" height="2.8" fill="#2b1d1a"/></pattern><pattern id="boxer-h8" patternUnits="userSpaceOnUse" width="8" height="8" patternTransform="rotate(-35)"><rect x="0" y="0" width="8" height="2.4" fill="#2b1d1a"/></pattern><pattern id="boxer-h9" patternUnits="userSpaceOnUse" width="9.5" height="9.5" patternTransform="rotate(55)"><rect x="0" y="0" width="9.5" height="2.2" fill="#2b1d1a"/></pattern><clipPath id="boxer-clip-5"><path d="M 204,210 C 206,234 204,252 196,274 L 302,284 C 295,270 291,258 289,244 C 270,249 250,246 240,232 Z"/></clipPath><clipPath id="boxer-clip-6"><path d="M 200,214 C 182,192 172,162 177,134 C 184,94 214,66 250,66 C 282,66 302,86 305,112 C 307,126 309,137 313,148 C 317,157 320,166 327,178 C 329,185 323,190 315,191 C 317,198 318,204 315,210 C 315,218 313,226 309,232 C 300,242 280,247 262,245 C 250,244 243,236 238,226 C 228,222 214,220 200,214 Z"/></clipPath><pattern id="boxer-h10" patternUnits="userSpaceOnUse" width="7" height="7" patternTransform="rotate(60)"><rect x="0" y="0" width="7" height="1.9" fill="#2b1d1a"/></pattern><clipPath id="boxer-clip-7"><path d="M 116,468 C 150,450 200,436 250,426 C 280,420 305,414 326,410 L 328,460 C 300,466 270,474 240,482 C 200,492 160,500 128,498 Z"/></clipPath><pattern id="boxer-h11" patternUnits="userSpaceOnUse" width="7.5" height="7.5" patternTransform="rotate(75)"><rect x="0" y="0" width="7.5" height="2.6" fill="#2b1d1a"/></pattern><clipPath id="boxer-clip-8"><path d="M 318,410 C 334,396 364,396 379,412 C 391,428 389,456 373,469 C 357,480 334,478 321,466 C 312,450 311,424 318,410 Z"/></clipPath><clipPath id="boxer-clip-9"><path d="M 338,292 C 368,282 397,299 403,330 C 424,336 450,346 472,352 C 500,360 530,370 558,378 L 560,436 C 532,438 502,432 478,424 C 452,416 420,410 390,402 C 374,398 356,388 348,372 C 342,350 334,312 338,292 Z"/></clipPath><clipPath id="boxer-clip-10"><path d="M 553,377 C 569,364 601,364 619,377 C 636,390 638,415 626,431 C 613,446 588,450 567,443 L 555,438 C 549,420 548,396 553,377 Z"/></clipPath></defs><g transform="translate(675.00,1017.00) scale(0.55556)"><path d="M 112,296 C 90,300 76,322 76,352 C 76,392 84,430 96,468 C 102,488 114,498 130,494 L 150,452 C 145,420 142,392 142,362 C 142,332 134,308 112,296 Z" fill="#ffffff"/><path d="M 112,296 C 90,300 76,322 76,352 C 76,392 84,430 96,468 C 102,488 114,498 130,494 L 150,452 C 145,420 142,392 142,362 C 142,332 134,308 112,296 Z" fill="url(#boxer-h0)" clip-path="url(#boxer-clip-0)"/><path d="M 76,352 C 76,392 84,430 96,468 C 102,488 114,498 130,494 L 122,470 C 106,440 98,400 98,356 C 98,330 104,310 112,296 C 90,300 76,322 76,352 Z" fill="url(#boxer-h1)" clip-path="url(#boxer-clip-0)"/><path d="M 112,296 C 90,300 76,322 76,352 C 76,392 84,430 96,468 C 102,488 114,498 130,494 L 150,452 C 145,420 142,392 142,362 C 142,332 134,308 112,296 Z" fill="none" stroke="#2b1d1a" stroke-width="4" stroke-linejoin="round"/><path d="M 146,860 C 150,896 156,922 156,948 C 154,968 142,990 144,1024 C 146,1058 158,1090 168,1126 L 206,1128 C 206,1092 210,1052 214,1016 C 216,990 222,966 226,944 C 230,920 236,896 240,866 Z" fill="#ffffff"/><path d="M 146,860 C 150,896 156,922 156,948 C 154,968 142,990 144,1024 C 146,1058 158,1090 168,1126 L 206,1128 C 206,1092 210,1052 214,1016 C 216,990 222,966 226,944 C 230,920 236,896 240,866 Z" fill="url(#boxer-h2)" clip-path="url(#boxer-clip-1)"/><path d="M 146,862 C 152,900 158,934 156,962 C 150,996 150,1040 160,1080 L 170,1128 L 184,1128 C 176,1080 170,1030 172,990 C 174,950 176,900 180,866 Z" fill="url(#boxer-h3)" clip-path="url(#boxer-clip-1)"/><path d="M 146,860 C 150,896 156,922 156,948 C 154,968 142,990 144,1024 C 146,1058 158,1090 168,1126 L 206,1128 C 206,1092 210,1052 214,1016 C 216,990 222,966 226,944 C 230,920 236,896 240,866 Z" fill="none" stroke="#2b1d1a" stroke-width="4" stroke-linejoin="round"/><path d="M 336,856 C 340,890 344,916 346,940 C 344,962 334,984 338,1016 C 344,1056 364,1096 380,1132 L 426,1132 C 424,1096 424,1060 428,1026 C 432,996 424,970 420,944 C 420,920 428,890 434,854 Z" fill="#ffffff"/><path d="M 336,856 C 340,900 338,944 346,990 C 354,1040 368,1094 382,1134 L 398,1134 C 386,1090 374,1040 368,990 C 362,940 362,900 364,858 Z" fill="url(#boxer-h2)" clip-path="url(#boxer-clip-2)"/><path d="M 364,858 C 362,900 362,940 368,990 C 374,1040 386,1090 398,1134 L 408,1134 C 398,1080 388,1020 384,960 C 380,920 382,890 386,860 Z" fill="url(#boxer-h4)" clip-path="url(#boxer-clip-2)"/><path d="M 336,856 C 340,890 344,916 346,940 C 344,962 334,984 338,1016 C 344,1056 364,1096 380,1132 L 426,1132 C 424,1096 424,1060 428,1026 C 432,996 424,970 420,944 C 420,920 428,890 434,854 Z" fill="none" stroke="#2b1d1a" stroke-width="4" stroke-linejoin="round"/><path d="M 146,650 L 405,654 C 421,700 436,760 447,850 C 410,860 364,862 328,857 C 316,827 302,801 286,787 C 272,801 262,831 254,867 C 214,872 176,870 138,864 C 132,790 136,710 146,650 Z" fill="#ffffff"/><path d="M 146,650 L 405,654 C 421,700 436,760 447,850 C 410,860 364,862 328,857 C 316,827 302,801 286,787 C 272,801 262,831 254,867 C 214,872 176,870 138,864 C 132,790 136,710 146,650 Z" fill="url(#boxer-h5)" clip-path="url(#boxer-clip-3)"/><path d="M 146,650 C 136,710 132,790 138,864 C 156,867 176,869 196,870 C 186,790 184,720 192,652 Z" fill="url(#boxer-h6)" clip-path="url(#boxer-clip-3)"/><path d="M 254,867 C 262,831 272,801 286,787 C 302,801 316,827 328,857 C 322,820 304,760 286,720 C 272,760 260,820 254,867 Z" fill="url(#boxer-h6)" clip-path="url(#boxer-clip-3)"/><path d="M 300,654 C 330,700 356,760 370,858 L 400,858 C 390,780 370,710 350,655 Z" fill="url(#boxer-h6)" clip-path="url(#boxer-clip-3)"/><path d="M 146,650 L 405,654 C 421,700 436,760 447,850 C 410,860 364,862 328,857 C 316,827 302,801 286,787 C 272,801 262,831 254,867 C 214,872 176,870 138,864 C 132,790 136,710 146,650 Z" fill="none" stroke="#2b1d1a" stroke-width="4" stroke-linejoin="round"/><path d="M 108,302 C 150,282 180,274 198,272 L 302,282 C 330,286 350,292 363,303 C 384,330 386,378 376,428 C 368,490 372,580 392,655 L 158,651 C 154,591 148,521 140,471 C 132,421 120,361 108,302 Z" fill="#ffffff"/><path d="M 108,302 C 118,361 128,421 134,471 C 138,521 140,591 146,651 L 196,652 C 184,560 178,470 176,400 C 175,350 168,318 150,290 Z" fill="url(#boxer-h7)" clip-path="url(#boxer-clip-4)"/><path d="M 120,492 C 180,486 260,474 330,460 L 360,468 C 330,500 260,520 170,540 L 130,548 Z" fill="url(#boxer-h8)" clip-path="url(#boxer-clip-4)"/><path d="M 346,356 C 356,388 372,398 381,404 L 380,470 C 365,462 352,440 340,420 Z" fill="url(#boxer-h7)" clip-path="url(#boxer-clip-4)"/><path d="M 190,338 C 230,356 280,362 332,352 L 336,372 C 282,386 228,380 186,360 Z" fill="url(#boxer-h9)" clip-path="url(#boxer-clip-4)"/><path d="M 334,470 C 350,520 362,590 382,650 L 404,654 C 386,590 378,520 380,470 Z" fill="url(#boxer-h9)" clip-path="url(#boxer-clip-4)"/><path d="M 108,302 C 150,282 180,274 198,272 L 302,282 C 330,286 350,292 363,303 C 384,330 386,378 376,428 C 368,490 372,580 392,655 L 158,651 C 154,591 148,521 140,471 C 132,421 120,361 108,302 Z" fill="none" stroke="#2b1d1a" stroke-width="4" stroke-linejoin="round"/><path d="M 204,210 C 206,234 204,252 196,274 L 302,284 C 295,270 291,258 289,244 C 270,249 250,246 240,232 Z" fill="#ffffff"/><path d="M 240,230 C 252,246 272,250 290,244 L 293,262 C 270,266 248,258 234,246 Z" fill="url(#boxer-h7)" clip-path="url(#boxer-clip-5)"/><path d="M 204,210 C 206,234 204,252 196,274 L 226,277 C 228,258 230,238 236,226 Z" fill="url(#boxer-h7)" clip-path="url(#boxer-clip-5)"/><path d="M 204,210 C 206,234 204,252 196,274 L 302,284 C 295,270 291,258 289,244 C 270,249 250,246 240,232 Z" fill="none" stroke="#2b1d1a" stroke-width="4" stroke-linejoin="round"/><path d="M 200,214 C 182,192 172,162 177,134 C 184,94 214,66 250,66 C 282,66 302,86 305,112 C 307,126 309,137 313,148 C 317,157 320,166 327,178 C 329,185 323,190 315,191 C 317,198 318,204 315,210 C 315,218 313,226 309,232 C 300,242 280,247 262,245 C 250,244 243,236 238,226 C 228,222 214,220 200,214 Z" fill="#ffffff"/><path d="M 262,160 C 280,170 292,182 295,196 C 291,214 281,228 262,238 C 255,212 255,186 262,160 Z" fill="url(#boxer-h10)" clip-path="url(#boxer-clip-6)"/><path d="M 286,140 C 296,138 306,142 311,150 C 304,158 294,160 286,154 Z" fill="url(#boxer-h10)" clip-path="url(#boxer-clip-6)"/><path d="M 200,214 C 182,192 172,162 177,134 C 184,94 214,66 250,66 C 282,66 302,86 305,112 C 307,126 309,137 313,148 C 317,157 320,166 327,178 C 329,185 323,190 315,191 C 317,198 318,204 315,210 C 315,218 313,226 309,232 C 300,242 280,247 262,245 C 250,244 243,236 238,226 C 228,222 214,220 200,214 Z" fill="none" stroke="#2b1d1a" stroke-width="4" stroke-linejoin="round"/><path d="M 181,156 C 170,112 196,72 244,65 C 276,61 300,76 306,102 C 300,100 292,99 286,103 C 281,98 272,98 266,104 C 262,112 256,118 250,122 C 244,130 240,142 239,156 C 229,151 215,152 207,162 C 200,172 198,186 200,198 C 190,187 184,172 181,156 Z" fill="#2b1d1a"/><path d="M 196,120 C 208,96 232,80 262,78" fill="none" stroke="#ffffff" stroke-width="2.2" stroke-linecap="round"/><path d="M 190,142 C 198,116 220,96 250,90" fill="none" stroke="#ffffff" stroke-width="2.2" stroke-linecap="round"/><path d="M 214,146 C 218,128 232,112 252,104" fill="none" stroke="#ffffff" stroke-width="2.2" stroke-linecap="round"/><path d="M 226,82 C 250,74 276,76 294,90" fill="none" stroke="#ffffff" stroke-width="2.2" stroke-linecap="round"/><path d="M 239,160 C 247,154 256,160 254,173 C 254,185 247,193 239,191 C 234,184 234,168 239,160 Z" fill="#ffffff" stroke="#2b1d1a" stroke-width="3"/><path d="M 288,192 C 296,185 311,184 321,191 C 326,196 323,204 314,203 C 306,202 298,201 289,205 C 284,202 284,196 288,192 Z" fill="#2b1d1a"/><path d="M 116,468 C 150,450 200,436 250,426 C 280,420 305,414 326,410 L 328,460 C 300,466 270,474 240,482 C 200,492 160,500 128,498 Z" fill="#ffffff"/><path d="M 128,498 C 160,498 200,488 240,480 C 270,474 300,468 328,464 L 327,446 C 290,450 240,458 190,470 C 160,478 140,484 120,484 Z" fill="url(#boxer-h11)" clip-path="url(#boxer-clip-7)"/><path d="M 116,468 C 150,450 200,436 250,426 C 280,420 305,414 326,410 L 328,460 C 300,466 270,474 240,482 C 200,492 160,500 128,498 Z" fill="none" stroke="#2b1d1a" stroke-width="4" stroke-linejoin="round"/><path d="M 318,410 C 334,396 364,396 379,412 C 391,428 389,456 373,469 C 357,480 334,478 321,466 C 312,450 311,424 318,410 Z" fill="#ffffff"/><path d="M 321,466 C 334,478 357,480 373,469 C 389,456 391,428 379,412 L 372,440 C 366,456 344,462 318,452 Z" fill="url(#boxer-h10)" clip-path="url(#boxer-clip-8)"/><path d="M 318,410 C 334,396 364,396 379,412 C 391,428 389,456 373,469 C 357,480 334,478 321,466 C 312,450 311,424 318,410 Z" fill="none" stroke="#2b1d1a" stroke-width="4" stroke-linejoin="round"/><path d="M 338,292 C 368,282 397,299 403,330 C 424,336 450,346 472,352 C 500,360 530,370 558,378 L 560,436 C 532,438 502,432 478,424 C 452,416 420,410 390,402 C 374,398 356,388 348,372 C 342,350 334,312 338,292 Z" fill="#ffffff"/><path d="M 390,402 C 420,410 452,416 478,424 C 502,432 532,438 560,436 L 560,418 C 530,420 502,414 478,406 C 450,398 420,396 396,388 C 382,384 368,372 360,360 Z" fill="url(#boxer-h11)" clip-path="url(#boxer-clip-9)"/><path d="M 348,372 C 356,388 374,398 390,402 C 368,380 352,340 356,300 L 338,292 C 334,312 342,350 348,372 Z" fill="url(#boxer-h0)" clip-path="url(#boxer-clip-9)"/><path d="M 338,292 C 368,282 397,299 403,330 C 424,336 450,346 472,352 C 500,360 530,370 558,378 L 560,436 C 532,438 502,432 478,424 C 452,416 420,410 390,402 C 374,398 356,388 348,372 C 342,350 334,312 338,292 Z" fill="none" stroke="#2b1d1a" stroke-width="4" stroke-linejoin="round"/><path d="M 553,377 C 569,364 601,364 619,377 C 636,390 638,415 626,431 C 613,446 588,450 567,443 L 555,438 C 549,420 548,396 553,377 Z" fill="#ffffff"/><path d="M 567,443 C 588,450 613,446 626,431 C 632,423 635,414 635,405 L 600,420 C 590,428 575,430 556,428 L 555,438 Z" fill="url(#boxer-h10)" clip-path="url(#boxer-clip-10)"/><path d="M 553,377 C 569,364 601,364 619,377 C 636,390 638,415 626,431 C 613,446 588,450 567,443 L 555,438 C 549,420 548,396 553,377 Z" fill="none" stroke="#2b1d1a" stroke-width="4" stroke-linejoin="round"/><path d="M 168,1122 L 210,1124 C 216,1138 228,1148 240,1158 C 252,1168 252,1184 236,1188 L 160,1190 C 150,1188 148,1178 150,1168 C 154,1152 162,1136 168,1122 Z" fill="#2b1d1a" stroke="#2b1d1a" stroke-width="3.5" stroke-linejoin="round"/><path d="M 382,1128 L 428,1130 C 446,1146 484,1156 522,1166 C 546,1173 548,1196 528,1200 L 372,1202 C 356,1200 352,1186 358,1170 C 364,1156 374,1142 382,1128 Z" fill="#2b1d1a" stroke="#2b1d1a" stroke-width="3.5" stroke-linejoin="round"/><path d="M 476,1160 C 496,1164 512,1168 526,1174" fill="none" stroke="#ffffff" stroke-width="4" stroke-linecap="round"/><path d="M 196,1148 C 210,1156 222,1164 234,1174" fill="none" stroke="#ffffff" stroke-width="3.5" stroke-linecap="round"/><path d="M 232,700 C 238,750 240,800 236,850" fill="none" stroke="#ffffff" stroke-width="5" stroke-linecap="round"/><path d="M 380,700 C 396,750 408,800 418,846" fill="none" stroke="#ffffff" stroke-width="5" stroke-linecap="round"/><path d="M 166,662 C 164,720 162,790 166,850" fill="none" stroke="#ffffff" stroke-width="3" stroke-linecap="round"/><path d="M 206,277 C 222,318 266,338 301,286" fill="none" stroke="#2b1d1a" stroke-width="4.5" stroke-linecap="round"/><path d="M 150,292 C 146,330 150,360 160,392" fill="none" stroke="#2b1d1a" stroke-width="2.8" stroke-linecap="round"/><path d="M 214,380 C 246,392 290,392 330,378" fill="none" stroke="#2b1d1a" stroke-width="2.8" stroke-linecap="round"/><path d="M 250,540 C 256,580 258,610 262,640" fill="none" stroke="#2b1d1a" stroke-width="2.2" stroke-linecap="round"/><path d="M 314,520 C 324,570 336,610 346,646" fill="none" stroke="#2b1d1a" stroke-width="2.2" stroke-linecap="round"/><path d="M 147,664 L 405,668" fill="none" stroke="#2b1d1a" stroke-width="3.5" stroke-linecap="round"/><path d="M 214,690 C 222,740 226,800 222,862" fill="none" stroke="#2b1d1a" stroke-width="2.8" stroke-linecap="round"/><path d="M 214,952 C 219,962 221,972 219,982" fill="none" stroke="#2b1d1a" stroke-width="2.4" stroke-linecap="round"/><path d="M 404,950 C 410,962 412,974 408,986" fill="none" stroke="#2b1d1a" stroke-width="2.4" stroke-linecap="round"/><path d="M 350,420 C 360,420 370,421 378,425" fill="none" stroke="#2b1d1a" stroke-width="2.8" stroke-linecap="round"/><path d="M 348,436 C 360,436 372,438 382,441" fill="none" stroke="#2b1d1a" stroke-width="2.8" stroke-linecap="round"/><path d="M 348,452 C 358,453 368,455 376,458" fill="none" stroke="#2b1d1a" stroke-width="2.8" stroke-linecap="round"/><path d="M 326,412 C 338,414 350,416 360,418" fill="none" stroke="#2b1d1a" stroke-width="2.8" stroke-linecap="round"/><path d="M 594,382 C 606,382 616,385 625,390" fill="none" stroke="#2b1d1a" stroke-width="2.8" stroke-linecap="round"/><path d="M 592,398 C 606,399 618,401 632,405" fill="none" stroke="#2b1d1a" stroke-width="2.8" stroke-linecap="round"/><path d="M 590,414 C 604,415 616,417 628,421" fill="none" stroke="#2b1d1a" stroke-width="2.8" stroke-linecap="round"/><path d="M 566,389 C 578,391 590,395 598,401" fill="none" stroke="#2b1d1a" stroke-width="2.8" stroke-linecap="round"/><path d="M 412,348 C 432,362 452,366 470,364" fill="none" stroke="#2b1d1a" stroke-width="2.2" stroke-linecap="round"/><path d="M 494,380 C 512,386 532,388 552,388" fill="none" stroke="#2b1d1a" stroke-width="2.2" stroke-linecap="round"/><path d="M 288,143 C 296,140 304,141 311,145" fill="none" stroke="#2b1d1a" stroke-width="4.5" stroke-linecap="round"/><path d="M 296,153 C 300,152 304,152 307,154" fill="none" stroke="#2b1d1a" stroke-width="3.5" stroke-linecap="round"/><path d="M 305,211 C 309,212 312,212 315,210" fill="none" stroke="#2b1d1a" stroke-width="2.8" stroke-linecap="round"/><path d="M 244,166 C 249,170 249,180 244,185" fill="none" stroke="#2b1d1a" stroke-width="2.2" stroke-linecap="round"/><path d="M 76,352 C 76,392 84,430 96,468 C 102,488 114,498 130,494" fill="none" stroke="#2b1d1a" stroke-width="3.5" stroke-linecap="round"/><path d="M 146,650 C 136,710 132,790 138,864" fill="none" stroke="#2b1d1a" stroke-width="3.5" stroke-linecap="round"/><path d="M 146,862 C 152,900 158,934 156,962 C 150,996 150,1040 160,1080 L 170,1128" fill="none" stroke="#2b1d1a" stroke-width="3.5" stroke-linecap="round"/><path d="M 132,1196 L 258,1196" fill="none" stroke="#2b1d1a" stroke-width="2.6" stroke-linecap="round"/><path d="M 152,1207 L 236,1207" fill="none" stroke="#2b1d1a" stroke-width="2.0" stroke-linecap="round"/><path d="M 346,1208 L 560,1208" fill="none" stroke="#2b1d1a" stroke-width="2.6" stroke-linecap="round"/><path d="M 368,1219 L 534,1219" fill="none" stroke="#2b1d1a" stroke-width="2.0" stroke-linecap="round"/><path d="M 258,1202 L 346,1204" fill="none" stroke="#2b1d1a" stroke-width="1.8" stroke-linecap="round"/></g></svg>