<svg xmlns="http://www.w3.org/2000/svg" viewBox="0 0 672 672" data-width="4096"><rect width="672.0" height="672.0" fill="#d8d9dc"/><circle cx="336.0" cy="336.0" r="311.5" fill="none" stroke="#c3c4c8" stroke-width="0.8"/><circle cx="336.0" cy="336.0" r="314.9" fill="none" stroke="#c3c4c8" stroke-width="0.8"/><circle cx="336.0" cy="336.0" r="318.3" fill="none" stroke="#c3c4c8" stroke-width="0.8"/><circle cx="336.0" cy="336.0" r="321.7" fill="none" stroke="#c3c4c8" stroke-width="0.8"/><circle cx="336.0" cy="336.0" r="325.1" fill="none" stroke="#c3c4c8" stroke-width="0.8"/><circle cx="336.0" cy="336.0" r="328.5" fill="none" stroke="#c3c4c8" stroke-width="0.8"/><circle cx="336.0" cy="336.0" r="331.9" fill="none" stroke="#c3c4c8" stroke-width="0.8"/><circle cx="336.0" cy="336.0" r="308.0" fill="none" stroke="#c9cacd" stroke-width="2.0"/><circle cx="299.90" cy="231.60" r="5.40" fill="#3c3b5c"/><circle cx="319.90" cy="231.60" r="5.40" fill="#3c3b5c"/><circle cx="339.90" cy="231.60" r="5.40" fill="#3c3b5c"/><circle cx="359.90" cy="231.60" r="5.40" fill="#3c3b5c"/><circle cx="379.90" cy="231.60" r="5.40" fill="#3c3b5c"/><circle cx="379.90" cy="251.60" r="5.40" fill="#3c3b5c"/><circle cx="379.90" cy="271.60" r="5.40" fill="#3c3b5c"/><circle cx="379.90" cy="291.60" r="5.40" fill="#3c3b5c"/><circle cx="379.90" cy="311.60" r="5.40" fill="#3c3b5c"/><circle cx="394.10" cy="217.40" r="5.40" fill="#3c3b5c"/><circle cx="408.10" cy="203.40" r="5.40" fill="#3c3b5c"/><circle cx="359.90" cy="251.60" r="5.40" fill="#3c3b5c"/><circle cx="345.90" cy="266.00" r="5.40" fill="#3c3b5c"/><circle cx="331.50" cy="280.20" r="5.40" fill="#3c3b5c"/><circle cx="317.50" cy="294.20" r="5.40" fill="#3c3b5c"/><circle cx="303.90" cy="308.60" r="5.40" fill="#3c3b5c"/><circle cx="283.90" cy="308.60" r="5.40" fill="#3c3b5c"/><circle cx="263.90" cy="308.60" r="5.40" fill="#3c3b5c"/><circle cx="303.90" cy="328.60" r="5.40" fill="#3c3b5c"/><circle cx="303.90" cy="348.60" r="5.40" fill="#3c3b5c"/><text x="336.0" y="426.0" font-family="Comfortaa" font-weight="600" font-size="62.0" fill="#3c3b5c" text-anchor="middle" letter-spacing="-0.40">Stick Man</text><text x="336.0" y="468.0" font-family="Comfortaa" font-weight="600" font-size="20.0" fill="#3c3b5c" text-anchor="middle">Potato Sticks Salted</text></svg>